<svg width="175" height="175" viewBox="0 0 175 175" fill="none" xmlns="http://www.w3.org/2000/svg">
<path d="M88.5191 151.908L88.5172 151.91C88.0784 152.349 87.7304 152.459 87.3214 152.459C87.0276 152.459 86.5184 152.303 86.1257 151.91L28.8042 94.5886C12.3578 78.1421 12.3578 51.3221 28.8042 34.8756C36.6943 26.9856 47.381 22.5408 58.75 22.5408C68.4542 22.5408 77.6754 25.8266 85.2737 31.7732L86.8837 33.0331L87.5 33.5155L88.1163 33.0331L89.7263 31.7732C97.3246 25.8266 106.546 22.5408 116.25 22.5408C127.613 22.5408 138.294 26.9809 146.183 34.8631C154.08 42.9317 158.338 53.4293 158.174 64.769L158.174 64.7879L158.173 64.7952V64.8025V64.8214C158.173 75.9933 153.741 86.6944 145.823 94.7833L145.822 94.7835L145.821 94.7852L145.813 94.7933L88.5219 151.905L88.5212 151.906L88.5191 151.908ZM86.796 140.23L87.5019 140.936L88.209 140.231L139.919 88.6936L139.925 88.6881L139.93 88.6826C146.234 82.2004 149.629 73.6914 149.459 64.8524L149.459 64.8465V64.8365V64.8214C149.459 55.7708 146.048 47.2548 139.929 40.9588L139.923 40.9535L139.918 40.9483C133.622 34.6584 125.29 31.2551 116.25 31.2551C107.204 31.2551 98.8669 34.6631 92.5686 40.9614C89.9513 43.5788 85.5728 43.5158 82.8391 41.0099L82.8213 40.9935L82.8039 40.9766L82.8038 40.9765C76.3208 34.6641 67.7965 31.2551 58.9286 31.2551C49.8738 31.2551 41.3609 34.6692 35.0686 40.9614C21.9482 54.0818 21.9482 75.3824 35.0686 88.5028L86.796 140.23Z" fill="url(#paint0_linear)" stroke="#F15A5C" stroke-width="2"/>
<path d="M127.48 39.4798L87.16 131.88L46.84 39.4798H67.72L87.88 89.2798L106.84 39.4798H127.48Z" fill="#45C0D4"/>
<defs>
<linearGradient id="paint0_linear" x1="87.3239" y1="16.3163" x2="87.3239" y2="158.684" gradientUnits="userSpaceOnUse">
<stop stop-color="#BA2027"/>
<stop offset="1" stop-color="#F15A5C"/>
</linearGradient>
</defs>
</svg>
